<?xml version="1.0" standalone="no"?>
<!DOCTYPE svg PUBLIC "-//W3C//DTD SVG 20010904//EN"
 "http://www.w3.org/TR/2001/REC-SVG-20010904/DTD/svg10.dtd">
<svg version="1.0" xmlns="http://www.w3.org/2000/svg" className ="fill-[#B82929] dark:fill-[#B82929]"
 width="1024.000000pt" height="442.000000pt" viewBox="0 0 1024.000000 442.000000"
 preserveAspectRatio="xMidYMid meet">

<g transform="translate(0.000000,442.000000) scale(0.100000,-0.100000)"
 stroke="none">
<path d="M874 2710 c-111 -16 -213 -100 -253 -208 -21 -57 -22 -61 -19 -827
l3 -770 28 -57 c33 -66 89 -121 161 -154 l51 -24 4286 0 4286 0 61 31 c79 39
134 102 161 182 21 59 21 79 21 807 0 670 -2 751 -17 796 -33 100 -84 157
-178 201 l-60 28 -4240 1 c-2332 1 -4263 -2 -4291 -6z m8534 -125 c51 -22 110
-82 122 -125 11 -38 14 -1476 4 -1528 -8 -41 -66 -108 -115 -132 -38 -20 -83
-20 -4289 -20 -4156 0 -4252 0 -4288 19 -48 25 -91 68 -108 108 -21 49 -20
1518 0 1568 19 44 59 82 111 106 39 18 182 19 4283 19 3808 0 4246 -2 4280
-15z"/>
<path d="M926 2510 c-37 -11 -83 -55 -107 -102 -18 -36 -19 -68 -19 -718 0
-650 1 -682 19 -718 25 -47 67 -86 110 -101 25 -8 1117 -11 4203 -11 3740 0
4172 2 4206 15 49 21 81 52 103 100 17 38 19 80 19 715 0 636 -2 677 -19 715
-23 49 -65 88 -110 104 -41 13 -8359 14 -8405 1z m1284 -332 c64 -33 98 -81
115 -163 18 -88 15 -603 -5 -676 -27 -103 -106 -158 -228 -159 -124 0 -196 49
-228 156 -20 68 -20 640 0 708 32 107 103 156 226 156 59 0 86 -5 120 -22z
m4175 3 c54 -24 91 -70 111 -136 13 -46 15 -107 12 -377 -3 -288 -5 -328 -22
-366 -35 -81 -109 -122 -220 -122 -116 1 -205 62 -227 156 -13 57 -11 656 2
708 14 56 62 114 113 137 56 25 176 25 231 0z m560 0 c83 -37 118 -106 119
-236 l1 -80 -75 0 -75 0 -6 79 c-4 61 -9 81 -24 92 -29 21 -81 17 -105 -8 -19
-21 -20 -34 -20 -340 0 -305 1 -319 20 -338 12 -12 33 -20 55 -20 65 0 75 22
75 159 l0 120 -37 3 -38 3 0 70 0 70 115 0 115 0 0 -200 c0 -216 -6 -251 -53
-307 -39 -46 -95 -68 -179 -68 -108 0 -168 32 -208 111 l-25 48 0 352 c0 344
0 353 22 397 20 40 75 88 118 105 36 13 166 6 205 -12z m1635 -5 c67 -34 102
-96 108 -190 l4 -74 -28 -5 c-25 -4 -58 -3 -111 2 -8 1 -13 17 -13 45 0 61
-29 96 -80 96 -46 0 -61 -16 -67 -74 -8 -67 22 -117 137 -231 131 -129 165
-192 165 -310 0 -101 -32 -174 -97 -220 -37 -26 -54 -30 -121 -34 -95 -4 -152
15 -196 65 -36 41 -61 118 -61 191 l0 54 78 -3 77 -3 5 -57 c6 -71 27 -98 75
-98 49 0 75 29 75 83 0 86 -16 114 -127 226 -122 122 -148 159 -169 242 -32
124 12 243 109 297 59 31 173 31 237 -2z m529 -1 c25 -14 56 -40 68 -58 36
-52 58 -206 31 -208 -16 -1 -109 -1 -124 0 -6 1 -14 25 -17 54 -8 61 -32 87
-83 87 -58 0 -79 -61 -52 -153 9 -29 38 -65 116 -141 140 -137 172 -195 173
-320 2 -117 -46 -204 -133 -240 -54 -23 -169 -21 -217 4 -79 40 -124 126 -119
225 l3 60 75 0 75 0 5 -61 c3 -34 11 -68 19 -77 14 -18 76 -23 98 -9 36 23 39
122 6 187 -9 16 -62 75 -118 130 -107 106 -137 153 -157 249 -24 112 24 229
112 274 65 33 175 31 239 -3z m-7915 -7 c3 -13 8 -54 11 -93 3 -38 13 -144 22
-235 8 -91 18 -201 22 -245 4 -44 10 -73 14 -65 6 14 37 304 57 533 5 59 12
112 15 117 9 14 162 13 171 -2 7 -11 17 -103 49 -458 8 -91 18 -178 22 -195 8
-34 6 -50 42 355 29 324 23 304 96 308 32 2 62 -1 66 -5 9 -9 5 -56 -31 -408
-11 -110 -25 -247 -30 -305 -5 -58 -15 -144 -21 -192 l-12 -88 -93 0 c-57 0
-95 4 -100 11 -7 12 -15 75 -40 314 -26 251 -29 272 -36 250 -10 -30 -17 -83
-34 -255 -15 -147 -32 -312 -33 -318 -1 -1 -49 -1 -108 0 l-108 3 -3 30 c-8
95 -43 443 -52 515 -13 106 -40 397 -40 428 0 21 4 22 75 22 69 0 75 -2 79
-22z m1560 11 c102 -26 146 -100 146 -248 0 -108 -13 -156 -55 -198 l-32 -32
28 -27 c49 -47 58 -90 61 -296 l3 -188 -72 0 c-61 0 -74 3 -83 19 -5 11 -10
86 -10 173 0 126 -3 159 -18 188 -16 33 -21 35 -69 38 l-53 3 0 -188 c0 -103
-3 -198 -6 -211 -6 -22 -11 -23 -83 -20 l-76 3 -3 485 c-1 267 0 491 3 498 6
16 257 17 319 1z m416 -183 l5 -189 80 168 c44 92 85 177 90 189 9 18 21 21
79 24 38 2 75 1 82 -2 8 -3 -17 -61 -78 -182 l-91 -178 13 -50 c7 -28 33 -116
57 -196 101 -331 112 -374 104 -383 -4 -4 -41 -7 -81 -5 -83 3 -79 0 -110 108
-12 41 -34 116 -50 165 -15 50 -31 102 -34 118 -9 37 -19 34 -42 -10 -16 -32
-20 -66 -24 -208 l-5 -170 -80 0 -80 0 -3 485 c-1 267 0 491 3 498 3 9 26 12
82 10 l78 -3 5 -189z m805 -306 l0 -495 -74 -3 c-41 -2 -77 1 -80 7 -3 5 -5
230 -3 500 l2 492 78 -3 77 -3 0 -495z m324 468 c5 -18 24 -89 41 -158 61
-248 88 -345 94 -330 3 8 7 128 8 265 l3 250 67 3 68 3 2 -492 c2 -270 0 -495
-3 -500 -3 -6 -41 -9 -84 -7 l-79 3 -38 145 c-20 80 -59 229 -85 333 -26 103
-51 187 -55 187 -5 0 -8 -151 -8 -335 l0 -335 -70 0 -70 0 0 493 c0 272 3 497
7 500 3 4 48 7 99 7 l92 0 11 -32z m949 17 c65 -20 116 -76 131 -147 14 -62
14 -219 0 -278 -22 -96 -93 -147 -209 -151 -36 -1 -71 -4 -77 -7 -10 -3 -13
-53 -13 -203 l0 -199 -80 0 -80 0 0 493 c0 272 3 497 7 500 13 14 268 7 321
-8z m547 4 c56 -16 92 -44 118 -92 19 -36 22 -57 22 -157 0 -107 -2 -118 -28
-162 -15 -26 -36 -49 -47 -53 -18 -6 -16 -9 15 -37 52 -45 64 -100 67 -311 l3
-177 -70 0 c-38 0 -76 4 -83 9 -10 6 -15 54 -19 190 -7 223 -9 226 -115 222
l-28 -1 -2 -207 -3 -208 -77 -3 -78 -3 0 501 0 500 143 0 c78 0 160 -5 182
-11z m1685 0 c104 -22 141 -79 148 -224 5 -122 -8 -177 -53 -222 l-34 -34 25
-16 c50 -32 57 -64 64 -268 4 -104 8 -197 11 -205 3 -12 -10 -16 -70 -18 -44
-2 -78 1 -85 8 -7 7 -13 78 -16 183 -6 206 -12 223 -84 229 -25 1 -50 2 -56 0
-6 -2 -10 -80 -10 -213 l0 -210 -77 3 -78 3 -3 485 c-1 267 0 491 3 498 6 16
242 17 315 1z m688 -43 c6 -98 10 -96 -137 -96 -113 0 -130 -2 -135 -17 -7
-18 -6 -210 0 -228 3 -6 42 -10 92 -9 127 2 122 5 122 -77 l0 -69 -105 0
c-125 0 -116 13 -112 -170 l2 -125 135 -5 135 -5 3 -49 c2 -27 1 -60 -3 -73
l-5 -23 -213 2 -212 3 -3 485 c-1 267 0 491 3 498 3 10 53 12 217 10 l213 -3
3 -49z"/>
<path d="M2034 2029 c-18 -19 -19 -42 -22 -298 -4 -303 0 -353 29 -382 23 -23
81 -25 103 -4 25 25 27 65 24 371 -3 271 -4 293 -22 313 -26 29 -86 29 -112 0z"/>
<path d="M6214 2029 c-18 -20 -19 -40 -19 -339 0 -299 1 -319 19 -339 13 -14
31 -21 57 -21 69 0 69 2 69 366 0 298 -1 322 -18 337 -27 24 -85 22 -108 -4z"/>
<path d="M2599 2036 c-2 -2 -3 -63 -1 -135 l3 -131 40 0 c53 0 74 13 88 51 24
71 8 189 -29 209 -18 10 -93 14 -101 6z"/>
<path d="M5080 1895 l0 -145 25 -6 c38 -9 93 4 105 26 5 10 10 68 10 128 0
130 -7 142 -88 142 l-52 0 0 -145z"/>
<path d="M5630 1905 l0 -135 50 0 c78 0 90 18 90 135 0 115 -13 135 -92 135
l-48 0 0 -135z"/>
<path d="M7324 2027 c-2 -7 -3 -67 -2 -133 l3 -119 47 -3 c36 -2 51 1 67 17
20 20 36 106 27 151 -2 14 -5 33 -5 43 -2 33 -38 57 -86 57 -28 0 -48 -5 -51
-13z"/>
</g>
</svg>
