<svg width="10" height="14" viewBox="0 0 10 14" fill="none" xmlns="http://www.w3.org/2000/svg">
<path d="M5.00004 0.333374C6.23772 0.333374 7.4247 0.825039 8.29987 1.70021C9.17504 2.57538 9.66671 3.76236 9.66671 5.00004C9.66671 6.58671 8.87337 7.98004 7.66671 8.82671V10.3334C7.66671 10.5102 7.59647 10.6798 7.47145 10.8048C7.34642 10.9298 7.17685 11 7.00004 11H3.00004C2.82323 11 2.65366 10.9298 2.52864 10.8048C2.40361 10.6798 2.33337 10.5102 2.33337 10.3334V8.82671C1.12671 7.98004 0.333374 6.58671 0.333374 5.00004C0.333374 3.76236 0.825039 2.57538 1.70021 1.70021C2.57538 0.825039 3.76236 0.333374 5.00004 0.333374ZM3.00004 13V12.3334H7.00004V13C7.00004 13.1769 6.9298 13.3464 6.80478 13.4714C6.67975 13.5965 6.51019 13.6667 6.33337 13.6667H3.66671C3.4899 13.6667 3.32033 13.5965 3.1953 13.4714C3.07028 13.3464 3.00004 13.1769 3.00004 13ZM5.00004 1.66671C4.11599 1.66671 3.26814 2.0179 2.64302 2.64302C2.0179 3.26814 1.66671 4.11599 1.66671 5.00004C1.66671 6.36671 2.48671 7.54004 3.66671 8.05337V9.66671H6.33337V8.05337C7.51337 7.54004 8.33337 6.36671 8.33337 5.00004C8.33337 4.11599 7.98218 3.26814 7.35706 2.64302C6.73194 2.0179 5.8841 1.66671 5.00004 1.66671Z" fill="#F2F2F2"/>
</svg>