<svg width="16" height="16" viewBox="0 0 16 16" fill="none" xmlns="http://www.w3.org/2000/svg">
<path d="M13.3333 7.33329H15.3333V8.66663H13.3333V7.33329ZM0.666626 7.33329H2.66663V8.66663H0.666626V7.33329ZM8.66663 0.666626V2.66663H7.33329V0.666626H8.66663ZM3.27996 2.33329L4.69996 3.75996L3.75329 4.69996L2.33329 3.28663L3.27996 2.33329ZM11.3 3.75329L12.7133 2.33329L13.6666 3.28663L12.2466 4.69996L11.3 3.75329ZM7.99996 3.99996C9.06082 3.99996 10.0782 4.42139 10.8284 5.17153C11.5785 5.92168 12 6.93909 12 7.99996C12 9.47996 11.1933 10.7733 9.99996 11.4666V12.6666C9.99996 12.8434 9.92972 13.013 9.8047 13.138C9.67967 13.2631 9.5101 13.3333 9.33329 13.3333H6.66663C6.48981 13.3333 6.32025 13.2631 6.19522 13.138C6.0702 13.013 5.99996 12.8434 5.99996 12.6666V11.4666C4.80663 10.7733 3.99996 9.47996 3.99996 7.99996C3.99996 6.93909 4.42139 5.92168 5.17153 5.17153C5.92168 4.42139 6.93909 3.99996 7.99996 3.99996M9.33329 14V14.6666C9.33329 14.8434 9.26305 15.013 9.13803 15.138C9.01301 15.2631 8.84344 15.3333 8.66663 15.3333H7.33329C7.15648 15.3333 6.98691 15.2631 6.86189 15.138C6.73686 15.013 6.66663 14.8434 6.66663 14.6666V14H9.33329ZM7.33329 12H8.66663V10.58C9.81996 10.2866 10.6666 9.23996 10.6666 7.99996C10.6666 7.29271 10.3857 6.61444 9.88558 6.11434C9.38548 5.61424 8.7072 5.33329 7.99996 5.33329C7.29271 5.33329 6.61444 5.61424 6.11434 6.11434C5.61424 6.61444 5.33329 7.29271 5.33329 7.99996C5.33329 9.23996 6.17996 10.2866 7.33329 10.58V12Z" fill="#181818"/>
</svg>
